<svg width="35" height="31" viewBox="0 0 35 31" fill="none" xmlns="http://www.w3.org/2000/svg">
<path d="M32.7667 2.10929C32.7667 1.47541 32.2121 1 31.5782 1H3.37057C2.73669 1 2.18204 1.47541 2.18204 2.10929L1.07275 17.877H33.7968L32.6875 2.10929H32.7667Z" stroke="#4A5056" stroke-width="2" stroke-miterlimit="10"/>
<path d="M32.0524 2.42496C32.0524 1.79108 31.4978 1.31567 30.8639 1.31567H4.00325C3.36937 1.31567 2.89396 1.79108 2.81472 2.42496L1.78467 17.8758H33.0825L32.0524 2.42496Z" stroke="#4A5056" stroke-miterlimit="10"/>
<path d="M1.07275 18.5895H33.876" stroke="#4A5056" stroke-miterlimit="10"/>
<path d="M1.07275 21.1244H33.876" stroke="#4A5056" stroke-miterlimit="10"/>
<path d="M16.999 17.9551H1.07275L1.23122 28.3349C1.23122 28.8103 1.6274 29.2064 2.10281 29.2064H32.846C33.3214 29.2064 33.7175 28.8103 33.7175 28.3349L33.876 17.9551H16.999Z" stroke="#4A5056" stroke-width="2" stroke-miterlimit="10"/>
<path d="M16.9172 18.7474H1.7041L1.86257 29.1272C1.86257 29.6026 2.25875 29.9988 2.73416 29.9988H32.1303C32.6057 29.9988 33.0019 29.6026 33.0019 29.1272L33.1604 18.7474H16.9964H16.9172Z" stroke="#4A5056" stroke-miterlimit="10"/>
<path d="M30.6287 16.7665H15.4156C14.7817 16.7665 14.2271 16.2118 14.2271 15.5779C14.2271 14.944 14.7817 14.3894 15.4156 14.3894H30.6287C31.2626 14.3894 31.8172 14.944 31.8172 15.5779C31.8172 16.2118 31.2626 16.7665 30.6287 16.7665Z" stroke="#4A5056" stroke-miterlimit="10"/>
<path d="M15.2556 15.1818H30.8649C31.261 15.1818 31.578 15.4987 31.578 15.8949C31.578 16.2911 31.261 16.608 30.8649 16.608H15.2556C14.8594 16.608 14.5425 16.2911 14.5425 15.8949C14.5425 15.4987 14.8594 15.1818 15.2556 15.1818Z" stroke="#4A5056" stroke-miterlimit="10"/>
<path d="M18.1084 21.4432V25.9596" stroke="#4A5056" stroke-miterlimit="10"/>
<path d="M18.9004 21.4432V25.9596" stroke="#4A5056" stroke-miterlimit="10"/>
<path d="M22.627 21.4432V25.9596" stroke="#4A5056" stroke-miterlimit="10"/>
<path d="M23.4194 21.4432V25.9596" stroke="#4A5056" stroke-miterlimit="10"/>
<path d="M27.1396 21.4432V25.9596" stroke="#4A5056" stroke-miterlimit="10"/>
<path d="M27.8516 21.4432V25.9596" stroke="#4A5056" stroke-miterlimit="10"/>
<path d="M31.7393 21.4432V25.9596" stroke="#4A5056" stroke-miterlimit="10"/>
<path d="M14.0659 21.4432V25.9596" stroke="#4A5056" stroke-miterlimit="10"/>
<path d="M32.1317 26.1181V21.4432H13.6699V25.9596H32.1317" stroke="#4A5056" stroke-miterlimit="10"/>
<path d="M17.4758 22.2356H15.0195V24.6919H17.4758V22.2356Z" stroke="#4A5056" stroke-miterlimit="10"/>
<path d="M21.9885 22.2356H19.5322V24.6919H21.9885V22.2356Z" stroke="#4A5056" stroke-miterlimit="10"/>
<path d="M26.5071 22.2356H24.0508V24.6919H26.5071V22.2356Z" stroke="#4A5056" stroke-miterlimit="10"/>
<path d="M31.0261 22.2356H28.5698V24.6919H31.0261V22.2356Z" stroke="#4A5056" stroke-miterlimit="10"/>
<path d="M17.6303 16.5295C17.6303 16.5295 17.6303 16.5295 17.6303 16.4502C17.6303 15.8956 16.9964 15.4202 16.2041 15.4202C15.4117 15.4202 14.7778 15.8956 14.7778 16.4502C14.7778 17.0049 14.7778 16.4502 14.7778 16.5295H17.6303Z" stroke="#4A5056" stroke-miterlimit="10"/>
<path d="M22.2299 16.5295C22.2299 16.5295 22.2299 16.5295 22.2299 16.4502C22.2299 15.8956 21.596 15.4202 20.8037 15.4202C20.0113 15.4202 19.3774 15.8956 19.3774 16.4502C19.3774 17.0049 19.3774 16.4502 19.3774 16.5295H22.2299Z" stroke="#4A5056" stroke-miterlimit="10"/>
<path d="M26.6679 16.5295C26.6679 16.5295 26.6679 16.5295 26.6679 16.4502C26.6679 15.8956 26.034 15.4202 25.2417 15.4202C24.4493 15.4202 23.8154 15.8956 23.8154 16.4502C23.8154 17.0049 23.8154 16.4502 23.8154 16.5295H26.6679Z" stroke="#4A5056" stroke-miterlimit="10"/>
<path d="M31.2611 16.5295C31.2611 16.5295 31.2611 16.5295 31.2611 16.4502C31.2611 15.8956 30.6273 15.4202 29.8349 15.4202C29.0426 15.4202 28.4087 15.8956 28.4087 16.4502C28.4087 17.0049 28.4087 16.4502 28.4087 16.5295H31.2611Z" stroke="#4A5056" stroke-miterlimit="10"/>
</svg>
